<?xml version="1.0" standalone="no"?>
<!DOCTYPE svg PUBLIC "-//W3C//DTD SVG 20010904//EN"
 "http://www.w3.org/TR/2001/REC-SVG-20010904/DTD/svg10.dtd">
<svg version="1.0" xmlns="http://www.w3.org/2000/svg"
 width="700.000000pt" height="700.000000pt" viewBox="0 0 700.000000 700.000000"
 preserveAspectRatio="xMidYMid meet">
<metadata>
Created by potrace 1.14, written by Peter Selinger 2001-2017
</metadata>
<g transform="translate(0.000000,700.000000) scale(0.100000,-0.100000)"
fill="#000000" stroke="none">
<path d="M3693 6976 c-140 -27 -234 -90 -284 -192 -19 -40 -24 -64 -23 -129 2
-218 156 -376 486 -499 54 -20 206 -68 338 -106 380 -110 501 -161 691 -289
393 -264 685 -695 789 -1169 25 -114 26 -147 3 -137 -205 83 -284 99 -488 99
-185 1 -254 -9 -398 -55 -205 -67 -369 -170 -542 -344 -190 -190 -291 -359
-405 -675 -65 -181 -108 -264 -165 -320 -51 -50 -60 -48 -95 27 -51 109 -74
292 -90 713 -12 309 -26 536 -40 625 -14 84 -14 83 25 99 48 21 114 67 158
113 149 152 185 379 91 571 -57 116 -190 224 -318 258 -81 22 -209 18 -288 -9
l-66 -23 -76 82 c-242 262 -549 412 -914 445 -339 31 -738 -71 -1036 -264
l-69 -45 -46 36 c-286 219 -703 63 -787 -295 -39 -163 22 -354 149 -469 l42
-39 -56 -120 c-120 -254 -217 -620 -260 -980 -17 -144 -18 -596 -1 -740 81
-687 310 -1253 728 -1795 115 -149 445 -479 594 -594 665 -513 1441 -768 2255
-743 469 15 872 104 1297 287 997 429 1740 1306 2003 2363 75 302 100 513 100
847 0 334 -25 545 -100 847 -158 636 -478 1190 -956 1659 -512 500 -1140 820
-1854 945 -156 27 -300 32 -392 15z m302 -107 c1276 -186 2325 -1067 2730
-2294 116 -350 165 -668 166 -1062 0 -235 -11 -369 -46 -579 -176 -1049 -859
-1976 -1804 -2448 l-93 -47 21 30 c58 81 75 173 47 253 -25 69 -97 136 -169
156 -31 9 -40 8 -54 -6 -13 -14 -58 -20 -227 -33 -116 -9 -215 -13 -221 -10
-5 3 -68 7 -140 7 -76 1 -187 10 -268 23 -315 48 -508 12 -630 -118 -74 -79
-91 -126 -92 -251 0 -96 2 -110 28 -160 16 -30 42 -70 60 -88 38 -39 41 -39
-150 -7 -325 55 -645 160 -943 310 l-94 47 57 30 c117 63 194 156 224 270 15
57 16 75 5 124 -16 79 -46 136 -105 200 -122 134 -291 221 -692 357 -121 41
-251 87 -290 102 -155 62 -307 150 -389 226 -31 27 -52 39 -67 37 -21 -3 -28
9 -66 107 -126 317 -185 631 -184 979 0 287 33 500 116 751 172 524 490 898
871 1025 118 39 133 39 105 4 -12 -15 -21 -41 -21 -59 0 -62 80 -189 149 -238
l25 -17 -24 -25 c-13 -14 -54 -40 -89 -58 -59 -29 -75 -32 -151 -32 -75 0 -91
4 -139 30 -30 16 -74 53 -99 82 -62 72 -102 70 -79 -4 14 -45 75 -122 127
-159 59 -43 72 -56 128 -133 162 -223 485 -256 708 -75 33 27 72 48 101 55
108 27 252 121 278 182 l13 31 22 -69 c74 -239 66 -481 -30 -950 -71 -347 -94
-580 -72 -734 10 -68 9 -82 -14 -159 -57 -198 -68 -274 -68 -487 -1 -175 2
-211 21 -287 102 -399 335 -630 593 -589 148 24 279 125 345 263 54 113 65
183 65 421 0 162 3 207 13 207 27 0 177 102 250 170 145 135 277 343 422 663
44 97 82 177 85 177 3 0 15 -18 28 -41 33 -57 155 -183 228 -235 34 -24 91
-57 127 -74 l65 -31 -34 -79 c-120 -277 -104 -516 44 -668 68 -69 129 -96 229
-100 103 -5 183 20 285 88 212 140 396 443 513 845 18 62 32 93 48 103 12 8
47 41 78 73 140 143 239 477 275 918 l6 84 19 -24 c10 -13 46 -71 81 -128 34
-57 68 -106 76 -108 7 -3 21 2 30 11 16 16 14 23 -32 109 -27 51 -76 135 -109
187 l-59 95 -9 149 c-18 275 -82 569 -175 806 -236 594 -702 1067 -1274 1294
-144 56 -272 90 -470 122 -294 48 -407 90 -519 190 -63 57 -117 150 -123 208
-3 27 1 31 47 49 45 17 130 33 195 36 14 0 88 -8 165 -20z m-1765 -933 c514
-111 894 -495 1059 -1071 79 -274 93 -393 121 -1070 16 -367 41 -534 101 -661
28 -59 96 -134 122 -134 27 0 116 61 159 109 56 62 102 155 168 341 101 283
208 463 380 637 207 209 459 332 746 364 183 21 405 -17 569 -96 114 -55 119
-67 16 -34 -501 160 -951 61 -1296 -286 -165 -166 -263 -320 -351 -555 -97
-261 -223 -458 -329 -518 -18 -9 -18 -13 -5 -37 17 -31 76 -95 109 -118 36
-24 22 -29 -55 -17 -89 14 -181 59 -231 113 -142 154 -188 375 -208 1007 -22
676 -63 915 -206 1205 -150 306 -403 557 -679 676 -404 174 -863 109 -1315
-188 -123 -81 -302 -258 -395 -391 -259 -369 -451 -848 -575 -1437 -28 -133
-32 -94 -10 100 77 683 320 1231 722 1627 241 238 537 387 879 443 116 19 398
14 504 -9z m-1596 -380 c82 -25 83 -30 17 -105 -71 -80 -152 -191 -214 -290
l-46 -73 -24 25 c-38 37 -68 103 -74 161 -13 124 61 236 181 278 62 21 99 22
160 4z m2818 -306 c57 -16 120 -70 152 -129 54 -100 35 -229 -45 -309 -35 -36
-107 -77 -117 -68 -3 4 -22 63 -42 134 -21 70 -60 180 -88 245 -33 77 -46 119
-39 122 7 2 19 6 27 8 27 9 114 7 152 -3z m-2064 -222 c15 -15 15 -50 1 -82
-17 -36 -40 -41 -62 -15 -20 25 -16 62 10 92 19 20 34 22 51 5z m1239 -169
c19 -38 0 -89 -33 -89 -38 0 -57 57 -33 101 14 28 51 21 66 -12z m-340 -101
c128 -62 241 -176 312 -315 26 -52 26 -53 1 -53 -11 0 -38 -11 -59 -24 -143
-91 -305 -116 -418 -66 -53 23 -126 91 -148 136 -19 40 -15 49 22 59 59 14
160 95 207 165 26 39 20 79 -16 118 -32 33 -32 34 -8 27 14 -4 62 -25 107 -47z
m-342 -549 c67 -25 125 -57 125 -69 0 -17 -143 -42 -202 -35 -61 7 -154 48
-203 88 l-30 25 40 7 c22 4 45 8 50 11 25 10 167 -7 220 -27z m3644 -743 c68
-36 132 -145 131 -225 0 -21 -6 -15 -32 32 -55 101 -159 174 -252 178 -17 0
-16 3 9 14 39 18 109 19 144 1z m5 -611 c59 -124 -68 -450 -245 -628 -58 -57
-124 -96 -166 -97 -12 0 -34 11 -50 24 -41 35 -45 132 -9 256 95 330 391 611
470 445z m-2844 -91 c-93 -293 -131 -501 -137 -770 -5 -180 -1 -249 22 -394
l5 -35 -16 35 c-27 59 -53 178 -66 297 -27 257 43 603 179 896 26 53 47 96 49
94 2 -1 -14 -57 -36 -123z m-1182 -1264 c388 -145 532 -220 641 -334 63 -68
93 -131 89 -188 l-3 -41 -64 88 c-126 171 -275 267 -646 415 -97 39 -209 87
-248 106 -70 35 -232 137 -241 152 -3 4 47 -18 111 -49 63 -32 226 -99 361
-149z m2405 -711 c82 -6 178 -9 215 -7 l67 6 -40 -16 c-32 -13 -89 -16 -295
-17 -209 -1 -268 -4 -330 -19 -95 -23 -186 -65 -227 -107 -51 -49 -41 -10 12
49 52 58 122 95 210 111 118 21 111 21 388 0z m361 -234 c71 -15 137 -48 170
-84 10 -11 21 -40 23 -64 5 -40 2 -48 -33 -86 -21 -24 -55 -51 -75 -62 -65
-33 -229 -71 -330 -76 -250 -14 -426 99 -349 224 75 123 367 196 594 148z"/>
</g>
</svg>
