<?xml version="1.0" encoding="UTF-8" standalone="no"?><!DOCTYPE svg PUBLIC "-//W3C//DTD SVG 1.1//EN" "http://www.w3.org/Graphics/SVG/1.1/DTD/svg11.dtd"><svg width="100%" height="100%" viewBox="0 0 2500 2500" version="1.1" xmlns="http://www.w3.org/2000/svg" xmlns:xlink="http://www.w3.org/1999/xlink" xml:space="preserve" xmlns:serif="http://www.serif.com/" style="fill-rule:evenodd;clip-rule:evenodd;stroke-linejoin:round;stroke-miterlimit:2;"><rect id="Plan-de-travail2" serif:id="Plan de travail2" x="-0" y="0" width="2500" height="2500" style="fill:none;"/><clipPath id="_clip1"><rect x="-0" y="0" width="2500" height="2500"/></clipPath><g clip-path="url(#_clip1)"><g><path d="M1177.58,523.859c88.579,-0 160.382,71.802 160.382,160.382c0,88.581 -71.803,160.383 -160.382,160.383c-88.58,0 -160.393,-71.802 -160.393,-160.383c-0,-88.58 71.813,-160.382 160.393,-160.382Z" style="fill:#d17b4d;fill-rule:nonzero;"/><path d="M225.491,414.88c88.58,-0 160.392,71.812 160.392,160.393c0,88.57 -71.812,160.383 -160.392,160.383c-88.575,-0 -160.382,-71.813 -160.382,-160.383c-0,-88.581 71.807,-160.393 160.382,-160.393Z" style="fill:#d17b4d;fill-rule:nonzero;"/><path d="M225.491,414.88c88.58,-0 160.392,71.812 160.392,160.393c0,88.57 -71.812,160.383 -160.392,160.383c-88.575,-0 -160.382,-71.813 -160.382,-160.383c-0,-88.581 71.807,-160.393 160.382,-160.393Z" style="fill:#d17b4d;fill-rule:nonzero;"/><path d="M225.491,433.212c-78.328,0 -142.058,63.724 -142.058,142.061c0,78.327 63.73,142.051 142.058,142.051c78.336,-0 142.061,-63.724 142.061,-142.051c-0,-78.337 -63.725,-142.061 -142.061,-142.061Zm-0,320.776c-98.541,0 -178.708,-80.176 -178.708,-178.715c-0,-98.548 80.167,-178.714 178.708,-178.714c98.548,-0 178.715,80.166 178.715,178.714c-0,98.539 -80.167,178.715 -178.715,178.715Z" style="fill:#471a1a;fill-rule:nonzero;"/><path d="M199.409,492.075c63.571,-0 115.114,51.532 115.114,115.109c0,63.576 -51.543,115.118 -115.114,115.118c-63.576,0 -115.114,-51.542 -115.114,-115.118c-0,-63.577 51.538,-115.109 115.114,-115.109Z" style="fill:#ff9696;fill-rule:nonzero;"/><path d="M199.409,510.398c-53.37,-0 -96.79,43.424 -96.79,96.787c0,53.372 43.42,96.786 96.79,96.786c53.367,0 96.792,-43.414 96.792,-96.786c0,-53.363 -43.425,-96.787 -96.792,-96.787Zm-0,230.227c-73.579,0 -133.441,-59.857 -133.441,-133.44c-0,-73.575 59.862,-133.441 133.441,-133.441c73.58,-0 133.446,59.866 133.446,133.441c0,73.583 -59.866,133.44 -133.446,133.44Z" style="fill:#471a1a;fill-rule:nonzero;"/><path d="M1177.58,523.859c88.579,-0 160.382,71.802 160.382,160.382c0,88.581 -71.803,160.383 -160.382,160.383c-88.58,0 -160.393,-71.802 -160.393,-160.383c-0,-88.58 71.813,-160.382 160.393,-160.382Z" style="fill:#d17b4d;fill-rule:nonzero;"/><path d="M1177.58,542.182c-78.337,-0 -142.061,63.734 -142.061,142.06c-0,78.327 63.724,142.061 142.061,142.061c78.326,0 142.06,-63.734 142.06,-142.061c0,-78.326 -63.734,-142.06 -142.06,-142.06Zm-0,320.776c-98.548,-0 -178.715,-80.177 -178.715,-178.715c-0,-98.538 80.167,-178.715 178.715,-178.715c98.538,0 178.705,80.177 178.705,178.715c-0,98.538 -80.167,178.715 -178.705,178.715Z" style="fill:#471a1a;fill-rule:nonzero;"/><path d="M1203.66,601.044c63.577,0 115.109,51.542 115.109,115.109c-0,63.577 -51.532,115.119 -115.109,115.119c-63.576,-0 -115.118,-51.542 -115.118,-115.119c-0,-63.567 51.542,-115.109 115.118,-115.109Z" style="fill:#ff9696;fill-rule:nonzero;"/><path d="M1336.08,699.64c-1.141,-9.2 -3.217,-18.106 -6.14,-26.627c2.667,-2.086 5.265,-4.241 7.793,-6.485c0.138,2.795 0.227,5.639 0.227,8.482c-0,8.374 -0.64,16.601 -1.88,24.63Z" style="fill:#471a1a;fill-rule:nonzero;"/><path d="M1226.26,810.281c-7.676,-34.706 -17.821,-70.976 -31.193,-107.434c11.63,2.677 23.744,4.094 36.181,4.094c23.626,0 46.081,-5.127 66.303,-14.317c1.889,7.537 2.893,15.419 2.893,23.537c-0,45.579 -31.675,83.906 -74.184,94.12Z" style="fill:#da7d7d;fill-rule:nonzero;"/><path d="M1203.66,619.365c-53.372,-0 -96.786,43.424 -96.786,96.796c-0,53.363 43.414,96.787 96.786,96.787c53.362,0 96.787,-43.424 96.787,-96.787c-0,-53.372 -43.425,-96.796 -96.787,-96.796Zm0,230.237c-73.584,0 -133.441,-59.867 -133.441,-133.441c0,-73.584 59.857,-133.45 133.441,-133.45c73.573,-0 133.441,59.866 133.441,133.45c0,73.574 -59.868,133.441 -133.441,133.441Z" style="fill:#471a1a;fill-rule:nonzero;"/><path d="M2481.68,1246.44c0,510.864 -311.014,949.121 -754.022,1135.7c-146.853,61.806 -308.27,95.98 -477.656,95.98c-680.223,0 -1231.64,-551.416 -1231.64,-1231.68c-0,-47.931 2.749,-95.262 8.064,-141.766c12.004,-104.688 37.112,-205.401 73.675,-300.426c45.177,-104.058 104.924,-200.324 185.194,-280.688c170.626,-170.853 453.194,-230.001 660.926,-106.892c162.016,95.989 244.122,269.597 273.081,455.712c28.861,186.065 -4.26,474.31 78.308,536.667c70.002,-30.101 83.886,-113.121 116.604,-196.014c49.072,-124.122 143.409,-232.117 265.287,-286.453c121.879,-54.298 270.877,-50.578 384.097,20.024c-0.551,-7.104 -1.24,-14.16 -2.017,-21.166c-27.542,-249.534 -191.34,-469.685 -414.021,-559.309c-98.41,-39.626 -205.627,-55.212 -301.94,-99.743c-37.471,-17.365 -74.086,-40.046 -97.544,-74.134c-23.37,-34.043 -30.741,-81.603 -9.162,-116.836c0.138,-0.184 0.227,-0.367 0.365,-0.551c6.415,-10.354 14.524,-18.693 23.822,-25.52c5.727,-4.124 11.916,-7.652 18.47,-10.676c29.51,-13.699 66.391,-16.769 101.077,-16.815c525.802,56.311 952.606,443.474 1068.16,949.173c19.838,86.868 30.475,177.268 30.839,270.051c0.039,1.791 0.039,3.572 0.039,5.362l-0.001,-0.001Z" style="fill:#ffcc8a;fill-rule:nonzero;"/><path d="M2433.76,978.273c-206.129,-735.486 -922.317,-890.981 -1030.15,-908.949c-26.49,-4.412 -50.696,-6.178 -72.453,-6.178c-18.538,-0 -35.296,1.279 -50.194,3.295c-0.256,-2.151 -0.433,-4.315 -0.542,-6.49c2.786,-1.649 5.738,-3.192 8.856,-4.637c28.665,-13.318 66.254,-15.046 92.409,-15.118c525.351,56.679 940.58,441.292 1052.08,938.075l-0.002,0.002Z" style="fill:#ffebd0;fill-rule:nonzero;"/><path d="M1773.88,1965.24c-61.953,-0 -114.617,-47.518 -117.559,-133.264c-0.433,-25.594 4.123,-50.607 11.395,-75.109c16.335,57.909 60.595,89.368 111.016,89.368c35.67,-0.01 74.43,-15.754 108.535,-49.014c60.074,-42.528 131.65,-168.914 162.528,-291.668c3.513,-1.653 6.967,-3.444 10.352,-5.343c5.707,147.817 -96.59,358.551 -177.731,416.038c-34.125,33.259 -72.866,49.003 -108.536,48.993l0,-0.001Zm-106.105,-309.429c-88.304,-35.69 -143.3,-111.645 -162.124,-195.797c8.59,-19.011 17.239,-38.052 26.204,-56.915c32.344,68.034 91.728,123.6 176.215,145.328c-15.675,34.794 -31.616,70.503 -40.295,107.384Z" style="fill:#daa874;fill-rule:nonzero;"/><path d="M1079.36,2182.88c-42.666,0 -86.356,-17.781 -121.17,-57.82c-24.404,-28.084 -43.051,-58.647 -56.6,-90.902c-40.177,-95.921 -35.277,-206.858 -3.1,-312.157c-8.866,74.607 -3.405,148.929 21.835,215.92c5.826,15.43 12.704,30.475 20.704,45.048c8.708,15.882 18.745,31.213 30.199,45.855c31.301,40.039 70.592,57.82 108.959,57.82c67.709,-0 132.525,-55.39 145.426,-141.579c3.414,-22.819 4.27,-46.632 4.27,-70.848c0.01,-24.521 -0.875,-49.446 -0.875,-74.165c-0,-1.092 -0,-2.174 0.009,-3.267c10.45,-3.758 20.723,-8.118 30.76,-13.028c-28.29,80.069 -4.999,175.261 -18.706,257.543c-14.346,86.189 -86.425,141.578 -161.711,141.578l0,0.002Z" style="fill:#daa874;fill-rule:nonzero;"/><path d="M827.634,2204.42c-19.424,34.175 -57.092,60.113 -96.492,68.91c-59.384,13.333 -121.052,-2.243 -179.925,-17.692c-79.684,-90.116 -147.443,-179.788 -204.623,-275.727c-30.013,-50.312 -57.87,-110.7 -37.206,-165.539c11.267,11.493 23.223,22.081 35.779,31.882l0.049,0.049c54.337,42.243 119.537,69.51 184.147,92.368c79.537,28.222 161.957,52.231 232.205,98.971c38.898,25.84 75.64,62.908 79.488,109.501c1.653,20.437 -3.523,39.911 -13.422,57.278l0,-0.001Z" style="fill:#d17b4d;fill-rule:nonzero;"/><path d="M827.634,2204.42c-24.925,-143.458 -213.922,-200.5 -309.598,-239.172c-116.004,-46.878 -171.128,-116.742 -172.821,-118.946c54.337,42.243 119.537,69.509 184.147,92.368c79.537,28.221 161.957,52.231 232.205,98.971c38.898,25.84 75.64,62.908 79.488,109.5c0.207,2.558 0.305,5.097 0.305,7.616c-0.02,17.653 -5.068,34.47 -13.727,49.663l0.001,0Z" style="fill:#edcab8;fill-rule:nonzero;"/><path d="M2168.52,1318.92c-14.297,58.331 -34.912,118.07 -78.533,159.359c-43.621,41.328 -116.014,57.545 -164.447,21.993c-50.539,-37.166 -54.888,-109.323 -59.473,-171.867c-4.625,-62.592 -23.272,-136.629 -82.696,-156.653c-54.071,-18.234 -110.789,20.201 -148.132,63.37c-63.685,73.535 -102.267,164.899 -142.494,253.461c-40.275,88.57 -84.9,178.232 -156.929,243.618c-72.068,65.377 -178.095,101.992 -268.997,67.218c-106.991,-40.965 -159.636,-165.914 -161.377,-280.5c-1.781,-114.598 34.784,-225.928 50.814,-339.424c16.088,-113.445 7.331,-240.362 -69.737,-325.175c-84.211,-92.693 -232.756,-107.079 -346.881,-55.625c-114.135,51.453 -196.476,156.889 -248.206,270.885c-120.911,266.242 -89.023,590.778 62.592,840.801c151.606,249.986 414.012,424.825 698.772,491.265c221.578,51.729 454.924,40.551 674.859,-19.513c-146.853,61.806 -308.27,95.98 -477.656,95.98c-652.68,0 -1186.78,-507.658 -1228.94,-1149.76c-1.786,-27.08 -2.702,-54.386 -2.702,-81.918c-0,-155.827 28.911,-304.974 81.739,-442.193c45.177,-104.058 104.924,-200.323 185.194,-280.725c170.626,-170.814 453.194,-229.962 660.926,-106.853c162.016,95.989 244.121,269.597 273.081,455.712c28.861,186.065 -4.261,474.31 78.307,536.667c70.002,-30.101 83.887,-113.121 116.605,-196.014c49.072,-124.122 143.409,-232.117 265.287,-286.453c121.879,-54.298 270.876,-50.578 384.097,20.024c-0.099,-1.102 -0.187,-2.243 -0.276,-3.345c-21.49,-256.805 -187.807,-485.399 -415.762,-577.129c-98.411,-39.626 -205.628,-55.213 -301.941,-99.744c-37.471,-17.365 -74.085,-40.045 -97.544,-74.134c-23.37,-34.042 -30.74,-81.602 -9.161,-116.835c10.401,-16.954 25.248,-28.683 42.656,-36.747c-2.107,13.882 -1.604,27.719 1.88,40.732c13.746,51.591 60.978,88.246 111.064,106.802c50.076,18.511 104.098,22.589 156.605,32.394c231.427,43.39 433.582,205.086 543.309,413.371c109.697,208.295 130.124,458.271 74.095,686.954l0.001,0.001Z" style="fill:#d17b4d;fill-rule:nonzero;"/><path d="M2249.09,1166.44c0,-0 -15.567,-38.229 -50.42,-90.214c0.994,-154.164 -32.571,-308.131 -104.266,-444.259c-109.726,-208.284 -311.879,-369.98 -543.309,-413.372c-52.506,-9.804 -106.528,-13.883 -156.604,-32.393c-50.086,-18.557 -97.318,-55.212 -111.064,-106.803c-0.719,-2.682 -1.31,-5.4 -1.783,-8.147c25.005,24.157 66.668,48.769 135.253,68.764c212.043,61.855 847.041,152.989 832.193,1026.42l0,0.004Z" style="fill:#daa874;fill-rule:nonzero;"/><path d="M2198.68,1076.23c-26.932,-40.177 -65.368,-88.55 -117.048,-133.903c-10.666,-128.668 -56.599,-252.723 -132.958,-358.915c-76.654,-106.637 -178.41,-187.64 -294.266,-234.272c-45.481,-18.312 -93.097,-31.665 -139.138,-44.585c-54.367,-15.262 -110.583,-31.036 -161.948,-54.8c-43.542,-20.169 -72.187,-41.731 -90.126,-67.857c-17.888,-26.061 -27.502,-66.135 -8.648,-96.919c5.077,-8.291 11.651,-15.293 19.906,-21.158c2.234,2.471 4.635,4.953 7.202,7.438c0.472,2.747 1.064,5.464 1.782,8.147c13.747,51.591 60.979,88.246 111.065,106.802c50.076,18.511 104.098,22.589 156.604,32.394c231.428,43.39 433.583,205.086 543.309,413.372c71.695,136.127 105.259,290.095 104.265,444.259l-0.001,-0.003Z" style="fill:#b56843;fill-rule:nonzero;"/><path d="M1231.83,2429.86c-60.202,-5.127 -120.049,-14.436 -179.05,-28.212c-112.924,-26.342 -222.326,-69.736 -322.704,-128.098c0.354,-0.078 0.708,-0.157 1.062,-0.236c27.553,-6.15 54.258,-20.684 74.47,-40.56c114.174,44.821 235.434,75.778 357.361,89.534l-0,0.728c-0,7.007 0.6,14.013 1.791,20.901c2.696,15.576 8.452,30.573 17.2,43.679c0.02,0.04 0.049,0.079 0.069,0.109c0.01,0.019 0.02,0.029 0.03,0.039c2.233,3.346 4.664,6.564 7.291,9.634c11.749,13.736 26.391,24.265 42.48,32.482Zm461.251,-53.481c3.395,-1.879 6.77,-3.779 10.135,-5.707c34.913,-19.976 71.38,-46.406 79.587,-85.815c4.487,-21.599 -1.988,-44.29 -15.154,-61.884c18.135,-9.525 35.995,-19.73 53.5,-30.622c407.172,-253.264 595.184,-482.034 626.634,-1141.18c10.243,63.626 15.557,128.875 15.557,195.286c0,489.591 -291.572,928.731 -742.814,1118.76c-9.122,3.837 -18.263,7.557 -27.444,11.158l-0.001,0.001Z" style="fill:#daa874;fill-rule:nonzero;"/><path d="M730.08,2273.55c-121.338,-70.553 -229.48,-163 -314.684,-273.651c109.785,95.626 244.27,175.576 390.217,232.855c-20.212,19.877 -46.918,34.411 -74.47,40.561c-0.354,0.079 -0.708,0.157 -1.062,0.236l-0.001,-0.001Z" style="fill:#b56843;fill-rule:nonzero;"/><path d="M1250,2459.81c-669.045,0 -1213.35,-544.301 -1213.35,-1213.35c0,-14.977 0.269,-29.894 0.806,-44.792c29.773,218.4 100.526,487.555 264.778,683.519c33.722,40.236 71.675,78.592 113.16,114.715c85.205,110.651 193.347,203.099 314.684,273.651c100.378,58.361 209.78,101.756 322.704,128.098c59.001,13.776 118.848,23.084 179.05,28.211c14.721,7.508 30.661,13.077 46.73,17.377c2.813,0.758 5.629,1.477 8.443,2.155c13.894,3.346 27.886,5.973 41.928,7.902c-26.174,1.673 -52.488,2.509 -78.937,2.509l0.003,0.001Z" style="fill:#b56843;fill-rule:nonzero;"/><path d="M1365.31,1504.47c-244.446,0 -151.133,-376.685 -205.971,-682.051c-37.324,-207.832 -209.436,-426.873 -459.432,-426.873c-90.371,0 -190.897,28.606 -298.95,96.708c-217.838,137.299 -324.815,487.033 -363.448,707.923c4.996,-133.923 31.695,-264.571 79.551,-388.988c47.6,-109.529 108.557,-201.947 181.186,-274.694c108.408,-108.555 257.061,-166.562 400.106,-166.562c84.645,-0 167.33,20.319 238.533,62.504c177.938,105.465 241.938,298.98 264.284,442.733c9.85,63.449 12.408,140.299 14.878,214.611c4.92,148.054 9.574,287.899 70.493,333.882c3.237,2.44 7.124,3.7 11.042,3.7c2.45,-0 4.91,-0.492 7.232,-1.496c63.301,-27.198 85.284,-90.253 108.565,-156.998c5.609,-16.089 11.405,-32.708 17.88,-49.102c49.525,-125.313 142.71,-226.075 255.673,-276.446c53.972,-24.049 111.802,-35.946 168.668,-35.946c70.73,0 139.955,18.421 198.287,54.79c2.971,1.85 6.337,2.775 9.692,2.775c3.306,-0 6.603,-0.886 9.525,-2.667c2.45,-1.486 4.458,-3.493 5.944,-5.825l44.24,37.746c-96.009,-46.602 -182.198,-65.918 -258.478,-65.918c-238.907,-0 -380.998,189.234 -426.576,321.721c-57.367,166.789 -128.117,195.964 -128.117,195.964c19.139,35.907 48.265,55.892 55.192,58.509l0.001,0Z" style="fill:#edcab8;fill-rule:nonzero;"/><path d="M2063.95,1423.16c-11.779,143.133 -102.907,321.829 -176.678,374.059c-93.372,91.04 -221.48,50.864 -226.114,-84.26c-0.955,-57.495 23.281,-112.068 46.917,-164.535c-199.163,-51.218 -258.822,-290.488 -153.672,-437.794c25.613,-35.916 61.028,-66.342 106.577,-87.281c101.993,-23.183 259.236,-15.114 333.322,222.493c58.421,29.963 76.202,98.195 69.648,177.318l-0,0Z" style="fill:#d17b4d;fill-rule:nonzero;"/><path d="M1778.73,1846.23c-61.973,-0 -114.637,-47.508 -117.579,-133.274c-0.019,-1.122 -0.019,-2.244 -0.019,-3.365c0.009,-56.266 23.763,-109.727 46.936,-161.17c-84.486,-21.727 -143.871,-77.294 -176.215,-145.328c-18.962,-39.872 -28.635,-84.024 -28.625,-128.167c0.01,-58.075 16.768,-116.102 51.169,-164.299c-3.208,69.373 4.723,140.437 40.412,199.271c34.372,56.669 116.261,111.98 185.436,111.98c4.576,-0 9.083,-0.237 13.53,-0.738c0.354,-0.04 0.709,-0.059 1.053,-0.059c7.331,-0 11.69,8.787 6.918,14.76c-23.676,29.608 -47.636,62.71 -47.705,98.341c-0.098,31.154 7.872,47.459 32.246,66.794c14.593,11.592 33.22,16.728 51.965,16.738c8.148,0 16.315,-0.974 24.187,-2.804c26.017,-6.052 49.299,-20.487 70.652,-36.517c54.514,-41.052 99.374,-94.661 130.852,-155.236c-11.778,143.133 -102.907,321.829 -176.678,374.059c-34.105,33.259 -72.865,49.013 -108.535,49.013l-0,0.001Z" style="fill:#b56843;fill-rule:nonzero;"/><path d="M2037.57,1284.16c-10.804,-15.931 -25.063,-28.979 -43.267,-38.317c-0.216,-0.699 -0.433,-1.378 -0.649,-2.077c20.202,4.832 34.214,20.497 43.916,40.394Z" style="fill:#edcab8;fill-rule:nonzero;"/><path d="M2059.18,1409.34c-22.11,-125.47 -88.678,-143.074 -124.319,-143.074c-13.904,0 -23.104,2.687 -23.104,2.687c27.64,-18.952 50.105,-26.736 68.378,-26.736c4.782,0 9.279,0.532 13.511,1.545c0.216,0.699 0.432,1.378 0.649,2.076c18.204,9.338 32.462,22.386 43.267,38.317c24.127,49.516 21.618,125.185 21.618,125.185Z" style="fill:#edcab8;fill-rule:nonzero;"/><path d="M117.062,811.189c-53.357,138.715 -80.412,285.164 -80.412,435.275c0,669.045 544.304,1213.35 1213.35,1213.35c163.148,0 321.465,-31.822 470.531,-94.582c451.245,-190.031 742.815,-629.173 742.815,-1118.76c-0,-621.33 -464.953,-1139.73 -1081.66,-1206.27c-26.155,0.072 -63.744,1.8 -92.409,15.118c-15.576,7.209 -26.931,16.911 -34.735,29.664c-18.853,30.784 -9.24,70.858 8.649,96.919c17.938,26.126 46.584,47.689 90.126,67.857c51.365,23.764 107.581,39.538 161.947,54.8c46.042,12.92 93.658,26.273 139.138,44.585c115.857,46.632 217.613,127.635 294.266,234.272c76.92,106.981 122.971,232.077 133.195,361.76c0.541,6.898 -2.844,13.51 -8.757,17.102c-5.914,3.592 -13.344,3.552 -19.218,-0.108c-105.22,-65.594 -245.824,-72.816 -366.954,-18.844c-112.964,50.371 -206.149,151.133 -255.673,276.446c-6.475,16.394 -12.271,33.013 -17.88,49.102c-23.281,66.745 -45.264,129.8 -108.565,156.998c-6.031,2.598 -13.018,1.761 -18.274,-2.204c-60.918,-45.983 -65.573,-185.829 -70.493,-333.882c-2.47,-74.312 -5.028,-151.162 -14.878,-214.611c-22.347,-143.753 -86.346,-337.267 -264.283,-442.733c-191.527,-113.476 -466.074,-68.733 -638.639,104.058c-72.63,72.748 -133.587,165.165 -181.187,274.694l-0.002,-0.001Zm1132.93,1685.27c-333.882,0 -647.781,-130.026 -883.883,-366.119c-236.094,-236.102 -366.114,-550.001 -366.114,-883.882c-0,-154.755 27.92,-305.75 82.992,-448.795c0.091,-0.236 0.192,-0.482 0.293,-0.709c49.459,-113.928 113.054,-210.272 189.025,-286.366c86.996,-87.114 202.892,-147.04 326.347,-168.766c127.91,-22.504 254.65,-1.525 356.918,59.07c190.238,112.757 258.253,317.094 281.819,468.641c10.195,65.643 12.781,143.616 15.292,219.02c4.152,125.027 8.452,254.06 48,298.458c40.905,-23.606 58.243,-73.328 78.08,-130.223c5.737,-16.423 11.661,-33.407 18.401,-50.489c53.028,-134.169 153.2,-242.222 274.843,-296.46c120.373,-53.638 258.704,-51.651 369.641,3.542c-31.232,-234.606 -188.899,-444.897 -400.933,-530.241c-43.631,-17.564 -90.253,-30.652 -135.35,-43.306c-55.764,-15.646 -113.417,-31.823 -167.448,-56.826c-49.771,-23.051 -83.12,-48.587 -104.944,-80.371c-29.54,-43.05 -33.437,-98.023 -9.693,-136.799c11.533,-18.853 28.556,-33.588 50.578,-43.783c35.572,-16.524 79.114,-18.484 108.772,-18.522c0.738,0.04 1.318,0.036 1.968,0.103c304.776,32.629 586.357,176.376 792.853,404.754c207.998,230.041 322.546,527.674 322.546,838.067c0,504.37 -300.377,956.777 -765.249,1152.54c-153.594,64.668 -316.692,97.455 -484.75,97.455l-0.004,0.003Z" style="fill:#471a1a;fill-rule:nonzero;"/><path d="M2068.65,928.117c24.364,15.488 46.012,34.056 65.673,54.041c19.66,20.015 37.362,41.506 53.736,63.754c32.709,44.575 60.143,92.152 84.989,140.693c2.834,5.53 0.649,12.3 -4.881,15.134c-5.373,2.745 -11.926,0.758 -14.898,-4.438l-0.019,-0.049c-26.519,-46.671 -55.42,-91.975 -88.64,-133.323c-16.619,-20.644 -34.322,-40.265 -53.402,-58.066c-19.069,-17.771 -39.566,-33.741 -61.5,-46.366l-0.039,-0.03c-8.777,-5.048 -11.789,-16.255 -6.741,-25.033c5.048,-8.767 16.266,-11.788 25.034,-6.74c0.216,0.128 0.482,0.285 0.688,0.423Z" style="fill:#471a1a;fill-rule:nonzero;"/><path d="M555.862,2237.93c20.418,4.989 40.561,10.086 60.585,13.904c20.025,3.867 39.911,6.504 59.542,7.203c19.484,0.463 39.115,-1.161 56.964,-6.13c4.468,-0.984 8.729,-2.893 13.117,-4.291c4.192,-1.958 8.61,-3.404 12.654,-5.717c8.404,-3.975 16.069,-9.308 23.469,-14.819c7.163,-5.806 13.874,-12.133 19.582,-19.158c5.49,-7.105 10.706,-14.514 14.002,-22.583c3.483,-7.961 6.042,-16.266 6.652,-24.699c0.895,-8.384 0.452,-16.954 -1.555,-25.407c-3.837,-16.895 -13.274,-33.072 -25.732,-47.468c-12.516,-14.406 -27.857,-27.06 -44.417,-38.258c-33.565,-22.721 -70.878,-40.443 -109.432,-55.921c-38.553,-15.597 -78.395,-29.186 -118.169,-44.015c-39.773,-14.878 -79.507,-31.163 -117.096,-52.181c-37.54,-20.881 -73.131,-46.396 -102.809,-77.993c-3.247,-3.453 -3.08,-8.895 0.384,-12.152c3.365,-3.159 8.629,-3.07 11.906,0.138c29.363,28.821 64.118,51.709 100.988,70.317c36.97,18.568 75.897,33.436 115.552,46.809c39.685,13.451 80.177,25.731 120.275,40.678c40,15.016 79.832,32.679 116.772,56.433c18.607,11.985 36.506,25.879 52.093,42.981c15.449,17.053 28.822,37.835 34.981,62.081c0.66,3.041 1.486,6.042 1.959,9.142c0.413,3.099 0.905,6.179 1.21,9.308c0.128,6.298 0.689,12.645 -0.187,18.903c-0.866,12.625 -4.389,24.856 -9.21,36.201c-4.674,11.523 -11.513,21.688 -18.805,31.262c-7.498,9.447 -16.078,17.771 -25.23,25.319c-9.348,7.232 -19.079,14.041 -29.667,19.286c-5.137,2.933 -10.706,5.009 -16.089,7.449c-5.638,1.87 -11.109,4.172 -16.944,5.52c-22.859,6.268 -45.737,7.941 -68.359,7.39c-22.544,-0.757 -44.566,-3.916 -65.86,-8.452c-21.343,-4.419 -42.056,-9.949 -62.425,-15.616c-9.761,-2.716 -15.458,-12.822 -12.752,-22.573c2.656,-9.555 12.408,-15.223 21.972,-12.901l0.079,0.01Z" style="fill:#471a1a;fill-rule:nonzero;"/><path d="M1705.81,1567.23c-50.008,-13.491 -95.37,-40.639 -131.611,-76.408c-36.261,-35.758 -63.724,-80.491 -77.677,-129.515c-13.944,-49.013 -14.042,-101.106 -2.204,-149.883c11.827,-48.777 35.699,-94.671 69.972,-131.247c3.542,-3.768 9.456,-3.955 13.225,-0.423c3.7,3.464 3.946,9.24 0.62,13.019c-30.829,35.001 -51.67,78.376 -61.195,123.787c-9.555,45.412 -7.823,93.136 6.101,136.787c13.884,43.651 39.911,83.207 73.406,114.243c33.486,31.075 74.617,53.776 118.396,64.118c9.849,2.332 15.951,12.201 13.628,22.051c-2.332,9.86 -12.201,15.961 -22.051,13.629c-0.168,-0.04 -0.325,-0.079 -0.492,-0.118l-0.118,-0.04Z" style="fill:#471a1a;fill-rule:nonzero;"/><path d="M1794.33,1452.23c-15.98,23.764 -31.812,47.183 -46.592,71.173c-14.76,23.98 -28.802,48.305 -40.344,73.604c-11.365,25.298 -20.625,51.493 -25.27,77.942c-4.792,26.372 -4.9,53.058 2.136,77.117c3.513,12.025 8.817,23.331 15.803,33.624l5.638,7.478c1.929,2.45 4.182,4.674 6.249,7.045c4.182,4.694 8.728,8.433 13.432,12.074c9.603,6.8 20.25,11.483 31.724,13.628c11.493,2.027 23.734,1.791 36.004,-0.797c12.281,-2.43 24.551,-6.878 36.33,-12.733c11.798,-5.835 23.222,-12.9 33.948,-21.038c21.461,-16.186 40.699,-36.063 55.488,-58.154l0.128,-0.187c0.315,-0.472 0.669,-0.955 1.033,-1.388c13.196,-16.009 24.846,-35.207 35.582,-54.553c10.696,-19.503 20.506,-39.665 29.559,-60.182c18.057,-41.052 33.142,-83.581 44.339,-126.877c5.521,-21.668 10.037,-43.542 13.019,-65.485c2.991,-21.914 4.477,-43.976 3.217,-65.565c-1.318,-21.48 -5.323,-42.774 -14.494,-60.88c-9.003,-18.184 -23.586,-32.344 -42.184,-40.246l1.515,0.502c-14.523,-3.975 -30.553,-3.208 -45.018,2.293c-14.573,5.431 -27.395,15.577 -37.894,28.034l-0.098,0.118c-3.73,4.418 -10.323,4.989 -14.751,1.26c-4.32,-3.641 -4.939,-10.037 -1.485,-14.455c11.808,-15.075 27.187,-28.369 45.805,-36.064c18.509,-7.754 39.616,-9.673 59.572,-4.92c0.393,0.088 0.767,0.206 1.131,0.344l0.394,0.158c11.916,4.634 23.262,11.453 32.984,20.152c9.751,8.699 17.485,19.355 23.547,30.543c12.064,22.575 17.013,47.185 19.119,71.124c3.759,48.167 -3.523,95.124 -14.18,140.546c-10.951,45.451 -25.83,89.662 -43.866,132.624c-9.053,21.471 -18.883,42.656 -29.953,63.38c-11.218,20.713 -22.987,41.052 -38.622,60.604l1.161,-1.584c-17.142,26.263 -38.505,48.787 -62.977,67.798c-12.231,9.515 -25.417,17.948 -39.478,25.132c-14.052,7.183 -29.126,12.969 -45.225,16.403c-16,3.562 -33.21,4.379 -50.273,1.545c-17.052,-2.834 -33.603,-9.998 -47.537,-20.005c-6.809,-5.127 -13.402,-10.735 -18.893,-16.807c-2.725,-3.06 -5.599,-5.973 -8.157,-9.19l-7.449,-9.87c-9.328,-13.628 -16.492,-28.822 -21.107,-44.565c-4.644,-15.755 -6.829,-31.981 -7.134,-47.951c-0.236,-16 1.604,-31.665 4.458,-46.927c5.746,-30.573 16.373,-59.277 28.988,-86.603c6.426,-13.608 13.393,-26.902 20.812,-39.881c7.655,-12.841 15.557,-25.506 24.364,-37.52c17.486,-24.069 37.067,-46.642 59.729,-66.017c4.487,-3.838 11.247,-3.316 15.095,1.181c3.188,3.739 3.365,9.033 0.747,12.92l-0.069,0.098Z" style="fill:#471a1a;fill-rule:nonzero;"/><path d="M1671.53,1740.19c29.067,3.139 61.51,-3.906 89.544,-21.795c-19.69,26.804 -49.791,48.334 -85.756,58.253l-0.827,0.226c-9.968,2.745 -20.29,-3.11 -23.035,-13.078c-2.755,-9.977 3.109,-20.29 13.077,-23.045c2.322,-0.639 4.734,-0.807 6.997,-0.561Z" style="fill:#471a1a;fill-rule:nonzero;"/><path d="M1266.67,1637.41c-60.438,87.882 -26.027,207.369 -41.053,307.668c-20.211,135.025 -167.832,194.449 -254.385,83.759c-21.953,-28.094 -38.72,-58.647 -50.902,-90.903c-65.023,-172.604 1.23,-393.807 105.426,-543.318l0.088,-0.177l0.05,-0.049c3.385,-4.861 6.829,-9.673 10.263,-14.337l242.055,242.281c-4.212,4.9 -8.058,9.938 -11.541,15.074l-0.001,0.002Z" style="fill:#d17b4d;fill-rule:nonzero;"/><path d="M1080.19,2086.65c-38.366,-0 -77.657,-17.781 -108.958,-57.82c-7.922,-17.841 -14.554,-36.084 -20.045,-54.593c37.255,34.411 82.135,48.374 121.417,48.374c14.366,-0 27.985,-1.87 40.206,-5.285c82.243,-23.045 84.625,-302.944 101.028,-355.964c7.803,-25.299 20.182,-31.921 30.986,-31.921c11.867,-0 21.845,7.96 21.845,7.96c-32.757,47.626 -37.648,104.551 -37.658,162.656c0,24.718 0.886,49.643 0.876,74.165c-0,24.216 -0.856,48.029 -4.271,70.848c-12.9,86.189 -77.716,141.579 -145.426,141.579l0,0.001Zm-139.157,-103.675c-8,-14.573 -14.879,-29.618 -20.704,-45.048c0.02,0.03 0.04,0.069 0.069,0.108c5.815,15.4 12.664,30.396 20.635,44.94Z" style="fill:#b56843;fill-rule:nonzero;"/><path d="M971.23,2028.84c-11.454,-14.642 -21.491,-29.973 -30.199,-45.855c8.708,15.882 18.755,31.203 30.199,45.855Z" style="fill:#f0dcc7;fill-rule:nonzero;"/><path d="M1024.64,1396.22c0.02,-0.029 0.049,-0.078 0.079,-0.108c-0.039,0.04 -0.049,0.069 -0.079,0.108Zm0.295,-0.432c0.05,-0.069 0.089,-0.128 0.138,-0.187c-0.049,0.059 -0.088,0.118 -0.138,0.187Zm0.247,-0.354c0.078,-0.109 0.157,-0.227 0.236,-0.335c-0.079,0.108 -0.158,0.226 -0.236,0.335Zm0.305,-0.434c0.088,-0.137 0.177,-0.255 0.265,-0.383c-0.088,0.128 -0.177,0.256 -0.265,0.383Z" style="fill:#edcab8;fill-rule:nonzero;"/><path d="M951.186,1974.24c-11.051,-10.214 -21.432,-22.228 -30.79,-36.202c-64.885,-171.974 0.679,-392.311 104.246,-541.823c0.029,-0.039 0.039,-0.068 0.079,-0.108c0.068,-0.108 0.147,-0.216 0.216,-0.324c0.049,-0.069 0.089,-0.128 0.138,-0.187c0.029,-0.059 0.069,-0.118 0.108,-0.167c0.079,-0.109 0.157,-0.227 0.236,-0.335c0.02,-0.03 0.049,-0.069 0.069,-0.099c0.089,-0.127 0.177,-0.255 0.266,-0.383c-4.359,9.24 -151.203,321.1 -74.568,579.628l-0,0Z" style="fill:#edcab8;fill-rule:nonzero;"/><path d="M971.23,2028.84c-11.444,-14.652 -21.491,-29.973 -30.199,-45.855c-7.971,-14.543 -14.819,-29.54 -20.635,-44.939c9.358,13.973 19.739,25.987 30.789,36.201c5.491,18.509 12.124,36.753 20.045,54.593Z" style="fill:#e1c3b4;fill-rule:nonzero;"/><path d="M1715.88,1809.34c26.223,0.827 54.287,-5.363 80.186,-18.912c-18.096,22.947 -43.001,42.401 -72.767,54.799l-0.768,0.325c-9.613,4.004 -20.634,-0.542 -24.639,-10.145c-4.005,-9.604 0.541,-20.635 10.145,-24.63c2.529,-1.063 5.265,-1.516 7.843,-1.437Z" style="fill:#471a1a;fill-rule:nonzero;"/><path d="M1135,2078.13c-16.64,-8.039 -30.79,-19.897 -40.896,-33.84c-10.155,-13.934 -16.255,-29.825 -18.351,-45.52c7.567,13.943 18.243,25.358 30.395,33.21c12.163,7.882 25.683,12.192 38.869,13.195c9.702,0.739 16.974,9.201 16.236,18.903c-0.738,9.712 -9.201,16.974 -18.903,16.246c-2.244,-0.177 -4.359,-0.757 -6.278,-1.673l-1.072,-0.521Z" style="fill:#471a1a;fill-rule:nonzero;"/><path d="M1180.66,2026.01c-9.259,-10.804 -17.309,-22.494 -23.655,-34.706c-6.367,-12.202 -11.021,-24.875 -14.229,-37.579c8.335,10.125 17.574,19.109 27.513,26.617c9.928,7.528 20.516,13.58 31.478,18.45c8.944,3.976 12.969,14.446 8.994,23.4c-3.966,8.945 -14.446,12.979 -23.4,9.004c-2.46,-1.102 -4.556,-2.687 -6.209,-4.605l-0.492,-0.581Z" style="fill:#471a1a;fill-rule:nonzero;"/><path d="M1782.81,2284.86c-8.207,39.41 -44.674,65.84 -79.587,85.815c-125.539,71.892 -275.6,112.629 -416.214,78.721c-36.467,-8.847 -73.259,-23.508 -97.643,-52.005c-12.959,-15.164 -21.205,-33.86 -24.6,-53.471c-5.5,-31.793 1.653,-65.928 21.668,-91.365c38.77,-49.161 109.785,-58.135 172.142,-52.87c54.484,4.625 109.923,16.954 163.571,9.81c7.744,-1.013 15.439,-2.43 23.095,-4.359l173.784,-12.782c41.328,6.603 72.305,51.503 63.784,92.506Z" style="fill:#d17b4d;fill-rule:nonzero;"/><path d="M1164.78,2343.92l-0.02,-0c-1.19,-6.888 -1.791,-13.894 -1.791,-20.9c0,-25.289 7.784,-50.549 23.459,-70.465c32.512,-41.23 87.724,-54.199 141.48,-54.199c10.332,0 20.605,0.482 30.662,1.328c42.705,3.631 86.002,11.986 128.56,11.986c11.739,-0 23.419,-0.63 35.011,-2.175l5.176,3.247c-0,0 -25.604,18.46 -77.786,18.46c-7.833,0 -16.265,-0.413 -25.299,-1.368c-14.179,-1.515 -33.043,-2.784 -54.13,-2.784c-65.692,-0 -153.14,12.299 -189.165,67.807c-3.001,-7.222 -5.254,-14.77 -6.75,-22.474c-10.489,21.963 -13.589,47.438 -9.407,71.537Z" style="fill:#edcab8;fill-rule:nonzero;"/><path d="M1468,2298.35c79.615,-6.671 146.724,18.559 149.883,56.334c3.169,37.776 -58.814,73.801 -138.44,80.462c-79.615,6.662 -146.724,-18.558 -149.893,-56.334c-3.159,-37.776 58.824,-73.8 138.45,-80.462Z" style="fill:#ffcc8a;fill-rule:nonzero;"/><path d="M1231.85,2429.86l-0.019,-0c-16.089,-8.217 -30.731,-18.746 -42.48,-32.482c-2.627,-3.07 -5.058,-6.288 -7.291,-9.634c2.243,3.346 4.674,6.573 7.301,9.643c11.759,13.737 26.391,24.266 42.489,32.473Z" style="fill:#bd8c62;fill-rule:nonzero;"/><path d="M1278.56,2447.23c-16.069,-4.3 -32.01,-9.87 -46.73,-17.378l0.019,0c14.711,7.498 30.652,13.058 46.711,17.378Z" style="fill:#9f583b;fill-rule:nonzero;"/><path d="M1182.03,2387.72c-0.02,-0.03 -0.05,-0.069 -0.069,-0.109c0.029,0.04 0.049,0.079 0.069,0.109Z" style="fill:#bd8c62;fill-rule:nonzero;"/><path d="M1391.36,2461.5c-35.021,-0 -69.973,-3.828 -104.364,-12.113c-2.814,-0.679 -5.629,-1.398 -8.432,-2.145c-16.059,-4.32 -32,-9.88 -46.711,-17.378c-16.099,-8.206 -30.731,-18.735 -42.49,-32.472c-2.627,-3.07 -5.057,-6.298 -7.301,-9.643c-0.01,-0.01 -0.02,-0.02 -0.029,-0.04c-0.02,-0.029 -0.04,-0.068 -0.069,-0.108c-8.748,-13.107 -14.485,-28.103 -17.181,-43.68l0.03,0c1.564,-19.247 7.301,-35.454 16.127,-49.062c4.271,10.273 10.067,19.886 17.348,28.388c24.374,28.497 61.166,43.208 97.642,52.005c11.297,2.725 22.653,4.969 34.058,6.76c5.845,31.98 58.262,54.199 124.161,54.199c8.246,-0 16.709,-0.354 25.299,-1.073c79.626,-6.661 141.608,-42.686 138.44,-80.462c-0.315,-3.847 -1.299,-7.557 -2.894,-11.129c33.545,-13.313 66.096,-29.185 97.151,-46.966c24.827,-14.249 50.49,-31.705 66.116,-54.849c5.638,13.609 7.557,28.595 4.536,43.119c-8.207,39.449 -44.674,65.84 -79.586,85.815c-94.839,54.308 -203.67,90.834 -311.851,90.834Z" style="fill:#b56843;fill-rule:nonzero;"/><path d="M1164.81,2343.92l-0.029,-0c-4.182,-24.099 -1.083,-49.574 9.407,-71.537c1.495,7.704 3.749,15.252 6.75,22.474c-8.827,13.609 -14.563,29.816 -16.128,49.063Z" style="fill:#cca798;fill-rule:nonzero;"/><path d="M1454.15,2436.2c-65.898,-0 -118.316,-22.219 -124.161,-54.199c23.33,3.651 46.848,5.382 70.395,5.382c72.728,0 145.751,-16.511 214.612,-43.847c1.594,3.572 2.578,7.282 2.893,11.129c3.168,37.776 -58.814,73.801 -138.44,80.462c-8.59,0.718 -17.053,1.073 -25.299,1.073Z" style="fill:#daa874;fill-rule:nonzero;"/><path d="M806.605,2203.41c-8.059,-30.081 -23.429,-59.66 -45.579,-85.185c29.776,15.98 57.023,39.429 78.435,68.929l0.315,0.433c6.061,8.355 4.211,20.045 -4.143,26.106c-8.344,6.061 -20.034,4.211 -26.096,-4.143c-1.368,-1.889 -2.352,-4.014 -2.932,-6.14Z" style="fill:#471a1a;fill-rule:nonzero;"/><path d="M772.538,2254.6c-16.502,-27.04 -39.301,-51.709 -67.198,-71.281c33.004,8.472 65.397,24.128 94.209,46.504l0.384,0.295c8.148,6.327 9.623,18.056 3.296,26.204c-6.327,8.148 -18.066,9.624 -26.204,3.297c-1.82,-1.418 -3.345,-3.169 -4.487,-5.019Z" style="fill:#471a1a;fill-rule:nonzero;"/><path d="M1187.47,2286.15c7.016,9.594 17.948,17.761 30.937,22.573c12.969,4.832 28.015,6.436 43.09,3.247c-12.635,8.827 -28.635,14.131 -45.54,14.918c-16.885,0.787 -34.922,-2.834 -51.444,-12.162l-1.623,-0.915c-9.102,-5.137 -12.32,-16.689 -7.183,-25.791c5.136,-9.102 16.688,-12.32 25.79,-7.183c2.391,1.357 4.438,3.237 5.973,5.313Z" style="fill:#471a1a;fill-rule:nonzero;"/><path d="M1189.44,2359.72c25.515,14.169 60.005,18.086 92.408,7.085c-26.46,21.677 -64.088,33.328 -103.015,28.004l-1.024,-0.137c-10.253,-1.407 -17.426,-10.854 -16.019,-21.107c1.397,-10.254 10.844,-17.427 21.097,-16.02c2.351,0.315 4.595,1.102 6.553,2.175Z" style="fill:#471a1a;fill-rule:nonzero;"/><path d="M1043.31,1385.32c-32.158,46.701 -59.247,96.845 -80.384,149.283c-20.988,52.447 -37.166,106.853 -45.48,162.351c-8.404,55.399 -9.083,111.852 0.492,166.188c9.603,54.268 30.828,106.066 63.684,149.471c8.049,10.893 16.482,20.359 26.362,28.487c9.781,8.069 20.526,14.671 31.96,19.296c22.829,9.378 48.453,10.411 72.167,3.1c23.754,-7.154 45.245,-22.268 61.471,-41.919c16.413,-19.611 27.513,-43.768 33.043,-69.343l1.84,-9.663l1.417,-10.086c0.836,-6.78 1.535,-13.608 2.047,-20.506c1.013,-13.806 1.407,-27.828 1.544,-41.988c0.207,-28.319 -0.374,-57.2 0.729,-86.523c1.033,-29.274 4.231,-59.198 12.634,-88.364c4.212,-14.543 9.801,-28.831 17.033,-42.302c7.213,-13.481 16.256,-25.978 26.5,-37.186c3.857,-4.211 10.4,-4.506 14.612,-0.649c4.024,3.68 4.477,9.82 1.141,14.032l-0.05,0.069c-16.884,21.264 -28.102,46.189 -34.242,72.629c-6.239,26.489 -7.557,54.287 -7.685,82.361c-0.03,28.143 1.683,56.689 2.106,85.815c0.246,14.563 0.226,29.284 -0.483,44.152c-0.777,14.977 -1.918,29.678 -5.057,45.215c-6.131,30.613 -19.1,60.408 -39.242,85.235c-20.074,24.748 -47.429,44.3 -78.73,53.913c-15.597,4.802 -32.119,7.075 -48.601,6.426c-16.491,-0.62 -32.826,-4.448 -47.97,-10.676c-30.425,-12.419 -55.478,-35.051 -73.288,-59.976c-18.067,-24.245 -33.092,-50.784 -44.379,-78.72c-11.346,-27.926 -19.247,-57.072 -24.098,-86.543c-9.831,-59.031 -7.016,-119.025 3.168,-176.865c5.137,-28.959 12.221,-57.485 20.93,-85.441c8.689,-27.965 19.021,-55.37 31.085,-81.968c24.098,-53.156 53.579,-103.891 89.406,-149.844c3.021,-3.867 8.61,-4.566 12.487,-1.545c3.72,2.903 4.507,8.187 1.87,12.035l-0.039,0.049Z" style="fill:#471a1a;fill-rule:nonzero;"/><path d="M1546.82,2211.52c-13.697,3.965 -27.798,6.494 -41.948,7.901c-14.15,1.329 -28.339,1.555 -42.401,1.172c-28.142,-0.866 -55.753,-4.261 -82.941,-6.505c-13.619,-1.23 -27.031,-2.194 -40.256,-2.293c-13.274,-0.118 -26.479,0.502 -39.459,2.047c-25.859,3.179 -51.069,10.106 -71.871,23.006c-10.44,6.377 -19.424,14.465 -26.853,23.685c-7.43,9.014 -12.871,19.424 -16.394,30.681c-7.065,22.475 -5.786,47.853 3.07,69.363c4.349,10.873 10.588,20.457 18.519,28.9c8.108,8.433 17.82,15.587 28.585,21.52c21.609,11.867 46.809,19.07 72.787,23.981c51.729,10.577 105.505,10.272 158.218,2.755c26.362,-3.995 52.605,-9.417 78.347,-16.994c25.682,-7.695 51.187,-16.285 76.034,-26.755c24.816,-10.49 49.151,-22.229 72.954,-35.08c23.517,-12.635 45.904,-26.922 61.392,-45.786c7.813,-9.328 13.274,-19.896 16.01,-31.183c2.322,-10.942 1.78,-22.888 -2.224,-34.115c-1.732,-5.698 -4.684,-10.982 -7.744,-16.167c-3.444,-4.93 -7.075,-9.85 -11.592,-13.885c-8.62,-8.551 -19.68,-14.268 -31.36,-16.925l-0.423,-0.098c-4.635,-1.053 -7.538,-5.658 -6.475,-10.293c0.994,-4.398 5.225,-7.222 9.604,-6.602c15.38,2.204 30.228,8.698 42.007,18.716c6.12,4.792 11.149,10.725 15.921,16.826c4.389,6.366 8.541,13.018 11.346,20.359c6.179,14.416 8.108,30.967 5.431,47.104c-2.893,15.695 -9.859,30.524 -19.138,42.795c-18.697,24.787 -43.661,41.19 -67.828,55.566c-24.108,14.406 -49.279,27.051 -74.883,38.77c-25.682,11.582 -52.162,21.54 -79.182,29.894c-27.031,8.394 -54.78,14.583 -82.824,19.247c-28.054,4.812 -56.669,6.406 -85.244,6.377c-28.606,0.059 -57.26,-3.238 -85.461,-8.63c-7.036,-1.515 -14.081,-2.746 -21.108,-4.517c-7.015,-1.771 -14.032,-3.808 -21.008,-6.1c-13.963,-4.566 -27.847,-10.303 -41.151,-17.791c-13.284,-7.488 -25.977,-16.886 -36.87,-28.448c-10.874,-11.67 -19.739,-25.673 -25.447,-40.462c-11.345,-29.717 -12.123,-62.681 -2.115,-92.644c4.998,-14.937 12.88,-29.225 23.242,-41.25c10.155,-11.965 22.475,-22.022 35.818,-29.598c26.794,-15.253 56.334,-22.003 85.136,-24.374c28.831,-2.165 57.78,0.167 85.234,4.093c27.562,3.956 54.524,8.689 81.416,11.316c26.825,2.559 53.737,2.844 79.922,-2.371l0.078,-0.02c3.572,-0.708 7.046,1.604 7.764,5.176c0.669,3.385 -1.387,6.681 -4.635,7.636Z" style="fill:#471a1a;fill-rule:nonzero;"/><path d="M934.429,946.489c-16.483,20.831 -37.983,38.061 -62.632,50.322c-12.31,6.18 -25.604,10.667 -39.341,13.815c-6.878,1.536 -13.933,2.5 -21.008,3.149c-7.095,0.551 -14.308,0.384 -21.491,0.522c-29.323,-1.437 -57.682,-11.867 -81.2,-29.441c-11.661,-8.906 -22.268,-19.563 -30.613,-32.089c-8.432,-12.418 -14.612,-26.706 -17.525,-41.692l-0.009,-0.04l35.296,7.459c-15.174,21.068 -36.093,36.881 -59.08,47.065c-23.045,10.145 -48.492,14.76 -73.82,12.812c-6.288,-0.522 -12.526,-1.427 -18.676,-2.716c-6.17,-1.279 -12.074,-2.893 -18.47,-5.254c-12.369,-4.684 -23.36,-11.415 -33.063,-19.327c-19.099,-15.999 -33.957,-36.683 -40.432,-60.634c-1.476,-5.481 1.761,-11.109 7.242,-12.595c4.536,-1.22 9.191,0.797 11.484,4.645l0.275,0.462c10.145,17.013 24.62,31.439 40.826,41.712c8.138,5.009 16.659,9.073 25.191,11.483c4.093,1.034 8.895,2.145 13.589,2.775c4.694,0.679 9.436,1.053 14.16,1.142c37.49,0.649 76.004,-17.024 98.941,-45.461c7.007,-8.679 19.73,-10.037 28.408,-3.031c3.011,2.43 5.147,5.55 6.357,8.945l0.532,1.544l0.009,0.02c5.481,19.149 18.077,36.28 34.942,48.886c16.738,12.693 37.412,20.968 58.401,22.956c5.412,0.099 10.804,0.63 16.285,0.531c5.481,-0.186 10.982,-0.59 16.463,-1.505c11.02,-1.456 21.972,-4.379 32.855,-8.02c21.737,-7.508 42.638,-18.873 62.938,-32.442l0.147,-0.099c4.467,-2.981 10.5,-1.781 13.481,2.677c2.391,3.592 2.076,8.207 -0.462,11.424Z" style="fill:#471a1a;fill-rule:nonzero;"/><path d="M807.924,994.282c-13.314,16.787 -30.268,30.456 -49.191,40.463c-36.722,19.414 -80.973,25.062 -120.855,12.998c-28.133,-8.501 -53.146,-25.456 -72.423,-47.537c-11.709,-13.441 -21.323,-28.752 -28.221,-45.225c9.614,2.539 19.493,4.005 29.461,4.36c44.025,1.515 88.275,-19.454 113.298,-52.792c11.395,49.19 60.714,84.083 111.104,87.556c5.609,0.404 11.267,0.443 16.827,0.177Z" style="fill:#471a1a;fill-rule:nonzero;"/><path d="M758.734,1034.74c-36.723,19.415 -80.973,25.063 -120.855,12.999c-28.133,-8.502 -53.146,-25.456 -72.423,-47.537c30.672,-13.442 65.171,-18.165 98.243,-12.999c35.385,5.52 68.772,22.298 95.035,47.537Z" style="fill:#ff9696;fill-rule:nonzero;"/><path d="M570.966,977.741c2.598,3.582 5.373,7.066 8.305,10.431c17.624,20.182 39.734,34.725 63.911,42.026c34.322,10.392 73.319,6.141 106.991,-11.65c5.53,-2.932 10.834,-6.199 15.872,-9.771c-39.95,-9.476 -74.361,-35.178 -92.663,-68.733c-27.789,23.626 -65.112,37.697 -102.288,37.697l-0.128,0Zm110.534,94.671c-16.65,0 -33.152,-2.352 -48.925,-7.124c-30.77,-9.299 -58.755,-27.64 -80.925,-53.028c-13.175,-15.124 -23.704,-32.009 -31.321,-50.194c-2.696,-6.445 -1.505,-13.855 3.071,-19.119c4.585,-5.264 11.758,-7.478 18.509,-5.688c8.305,2.195 16.866,3.464 25.456,3.769c37.668,1.28 76.26,-16.551 97.967,-45.48c4.271,-5.698 11.444,-8.404 18.441,-6.928c6.976,1.466 12.457,6.849 14.071,13.796c8.974,38.75 49.613,70.317 94.513,73.407c4.812,0.344 9.732,0.393 14.682,0.157c7.153,-0.305 13.904,3.533 17.19,9.938c3.287,6.396 2.519,14.121 -1.948,19.749c-14.455,18.244 -33.466,33.899 -54.967,45.284c-26.863,14.19 -56.56,21.461 -85.814,21.461Z" style="fill:#471a1a;fill-rule:nonzero;"/><path d="M677.897,900.269c-32.492,-4.448 -64.501,-46.514 -75.139,-81.328c-25.328,-82.932 170.755,-65.751 189.5,-10.775c11.169,32.767 -65.131,98.823 -114.361,92.103Z" style="fill:#471a1a;fill-rule:nonzero;"/><path d="M942.663,708.448c32.58,-0 58.981,39.36 58.981,87.911c-0,48.56 -26.401,87.921 -58.981,87.921c-32.571,-0 -58.982,-39.361 -58.982,-87.921c0,-48.551 26.411,-87.911 58.982,-87.911Z" style="fill:#471a1a;fill-rule:nonzero;"/><path d="M404.395,722.47c10.893,-47.311 45.47,-79.743 77.214,-72.432c31.744,7.321 48.64,51.601 37.737,98.922c-10.903,47.311 -45.471,79.743 -77.215,72.432c-31.744,-7.311 -48.639,-51.601 -37.736,-98.922Z" style="fill:#471a1a;fill-rule:nonzero;"/><path d="M925.945,751.971c8.561,-0 15.498,10.342 15.498,23.105c0,12.752 -6.937,23.094 -15.498,23.094c-8.56,0 -15.498,-10.342 -15.498,-23.094c0,-12.763 6.938,-23.105 15.498,-23.105Z" style="fill:#fff;fill-rule:nonzero;"/><path d="M469.761,719.193c2.824,-12.261 11.788,-20.664 20.014,-18.775c8.227,1.899 12.605,13.373 9.781,25.643c-2.824,12.261 -11.778,20.664 -20.014,18.775c-8.226,-1.899 -12.605,-13.373 -9.781,-25.643Z" style="fill:#fff;fill-rule:nonzero;"/><path d="M1858.83,1572.05c40.59,-74.076 97.2,-121.141 126.434,-105.122c29.235,16.03 20.025,89.063 -20.575,163.138c-40.6,74.076 -97.21,121.131 -126.445,105.112c-29.225,-16.02 -20.014,-89.062 20.586,-163.128Z" style="fill:#ffcc8a;fill-rule:nonzero;"/></g></g></svg>